<?xml version="1.0" encoding="utf-8"?>
<!-- Generator: Adobe Illustrator 16.0.0, SVG Export Plug-In . SVG Version: 6.00 Build 0)  -->
<!DOCTYPE svg PUBLIC "-//W3C//DTD SVG 1.1//EN" "http://www.w3.org/Graphics/SVG/1.1/DTD/svg11.dtd">
<svg version="1.1"
	 id="LogoGGEA" sodipodi:docname="logoGGEa.svg" inkscape:version="0.91 r13725" xmlns:osb="http://www.openswatchbook.org/uri/2009/osb" xmlns:dc="http://purl.org/dc/elements/1.1/" xmlns:cc="http://creativecommons.org/ns#" xmlns:rdf="http://www.w3.org/1999/02/22-rdf-syntax-ns#" xmlns:svg="http://www.w3.org/2000/svg" xmlns:sodipodi="http://sodipodi.sourceforge.net/DTD/sodipodi-0.dtd" xmlns:inkscape="http://www.inkscape.org/namespaces/inkscape"
	 xmlns="http://www.w3.org/2000/svg" xmlns:xlink="http://www.w3.org/1999/xlink" x="0px" y="0px" width="279.042px"
	 height="279.111px" viewBox="158.082 281.389 279.042 279.111" enable-background="new 158.082 281.389 279.042 279.111"
	 xml:space="preserve">
<g id="base_1_">
	<path id="base" fill="#0000EA" enable-background="new    " d="M437.193,420.945c0,77.074-62.481,139.556-139.556,139.556l0,0
		c-77.074,0-139.556-62.481-139.556-139.556l0,0c0-77.074,62.481-139.556,139.556-139.556l0,0
		C374.712,281.389,437.193,343.871,437.193,420.945L437.193,420.945z"/>
</g>
<g id="texto">
	<text transform="matrix(1 0 0 1 219.0791 428.2869)" fill="#FFFFFF" font-family="'TimesNewRomanPSMT'" font-size="28">GGEA/UEPB</text>
</g>
<g id="pessoa1">
	<circle fill="#BFBFBF" cx="297.638" cy="311.559" r="18.886"/>
	<polygon fill="#BFBFBF" points="313.555,331.862 323.721,312.279 358.805,344.279 	"/>
	<polygon fill="#BFBFBF" points="270.717,314.646 285.217,330.945 243.217,353.612 	"/>
</g>
<g id="pessoa2">
	<circle fill="#CC01F9" enable-background="new    " cx="193.606" cy="387.142" r="18.886"/>
	<polygon fill="#CC01F9" enable-background="new    " points="217.834,378.278 202.351,362.558 243.626,339.08 	"/>
	<polygon fill="#CC01F9" enable-background="new    " points="188.223,413.699 208.205,404.946 216.783,451.895 	"/>
</g>
<g id="pessoa3" enable-background="new    ">
	<circle fill="#01EB03" cx="233.342" cy="509.44" r="18.886"/>
	<polygon fill="#01EB03" points="232.398,483.66 212.664,493.527 203.089,447.017 	"/>
	<polygon fill="#01EB03" points="256.935,522.767 254.786,501.057 302.087,507.408 	"/>
</g>
<g id="pessoa4" enable-background="new    ">
	<circle fill="#FCF916" cx="361.934" cy="509.442" r="18.885"/>
	<polygon fill="#FCF916" points="337.124,502.372 340.409,524.19 293.217,518.924 	"/>
	<polygon fill="#FCF916" points="381.899,491.121 360.587,486.457 381.243,443.433 	"/>
</g>
<g id="pessoa5" enable-background="new    ">
	<circle fill="#FA0108" cx="401.67" cy="387.144" r="18.886"/>
	<polygon fill="#FA0108" points="387.279,408.555 409.045,412.173 389.453,455.428 	"/>
	<polygon fill="#FA0108" points="390.415,362.494 379.394,381.322 344.859,348.382 	"/>
</g>
</svg>
